# xmcd CD database file
#
# Track frame offsets:
#	150
#	20652
#	42397
#	63977
#	83812
#	98032
#	121472
#	143825
#	166232
#	188072
#	206477
#	228727
#	247837
#
# Disc length: 3466 seconds
#
# Revision: 3
# Processed by: cddbd v1.4PL0 Copyright (c) Steve Scherf et al.
# Submitted via: NeoAudio 9.9.9
#
DISCID=ac0d880d
DTITLE=Various Artist - The Bodyguard Original Soundtrack Album
DYEAR=1992
DGENRE=Blues
TTITLE0=Whitney Houston - I Will Always Love You
TTITLE1=Whitney Houston - I Have Nothing
TTITLE2=Whitney Houston - I'm Every Woman
TTITLE3=Whitney Houston - Run To You
TTITLE4=Whitney Houston - Queen Of The Night
TTITLE5=Kenny G and Aaron Neville - Jesus Loves Me
TTITLE6=Lisa Stansfield - Even If My Heart Would Break
TTITLE7=The S.O.U.L S.Y.S.T.E.M. - Someday (I'm Coming Back)
TTITLE8=Curtis Stigers - It's Gonna Be A Lovely Day
TTITLE9=Kenny G - (What's So Funny 'Bout) Peace, Love And Understanding
TTITLE10=Joe Cocker feat. Sass Jordan - Waiting For You
TTITLE11=Unknown - Trust In Me
TTITLE12=Unkown - Theme From The Bodyguard
EXTD=YEAR: 1992
EXTT0=
EXTT1=
EXTT2=
EXTT3=
EXTT4=
EXTT5=
EXTT6=
EXTT7=
EXTT8=
EXTT9=
EXTT10=
EXTT11=
EXTT12=
PLAYORDER=
